/* XPM */
static char * 116_xpm[] = {
"16 16 96 2",
"  	c None",
". 	c #15930E",
"+ 	c #38A825",
"@ 	c #6ED447",
"# 	c #91F05C",
"$ 	c #9BF962",
"% 	c #90EF5B",
"& 	c #6DD246",
"* 	c #36A723",
"= 	c #52BF35",
"- 	c #94F75C",
"; 	c #93F75C",
"> 	c #86E154",
", 	c #83DC51",
"' 	c #87E355",
") 	c #51BE34",
"! 	c #4ABA2F",
"~ 	c #89F354",
"{ 	c #7EDF4D",
"] 	c #79D84A",
"^ 	c #77D748",
"/ 	c #76D747",
"( 	c #7EE04D",
"_ 	c #289F19",
": 	c #7EF04B",
"< 	c #FFFFFF",
"[ 	c #6CD33F",
"} 	c #6AD23D",
"| 	c #7DEF4A",
"1 	c #4BC62D",
"2 	c #71EC43",
"3 	c #61CE38",
"4 	c #60CE37",
"5 	c #4A9C2D",
"6 	c #4B9C2E",
"7 	c #48C22B",
"8 	c #59DA33",
"9 	c #5BD235",
"0 	c #56CA31",
"a 	c #57CA32",
"b 	c #58CB33",
"c 	c #5CD435",
"d 	c #55D631",
"e 	c #53DE2F",
"f 	c #4CC72C",
"g 	c #4CC62C",
"h 	c #4CC82D",
"i 	c #51DC2E",
"j 	c #0B7C07",
"k 	c #45DA27",
"l 	c #3FC023",
"m 	c #41C225",
"n 	c #32931E",
"o 	c #3FC223",
"p 	c #44D826",
"q 	c #31C51C",
"r 	c #34BF1E",
"s 	c #37BD20",
"t 	c #36BC1F",
"u 	c #35C31F",
"v 	c #30C31C",
"w 	c #1DA811",
"x 	c #2DCE19",
"y 	c #2DB91A",
"z 	c #2EBA1A",
"A 	c #1CA310",
"B 	c #20C211",
"C 	c #18870F",
"D 	c #1A8410",
"E 	c #22B113",
"F 	c #1C8811",
"G 	c #1C8911",
"H 	c #23B414",
"I 	c #1B8711",
"J 	c #19890F",
"K 	c #1FC111",
"L 	c #0E8F08",
"M 	c #16BE0C",
"N 	c #15B50C",
"O 	c #15A70C",
"P 	c #17AA0D",
"Q 	c #17AB0D",
"R 	c #15B40C",
"S 	c #0A8A06",
"T 	c #0EAC08",
"U 	c #0FB809",
"V 	c #0EA809",
"W 	c #0E9F08",
"X 	c #096E06",
"Y 	c #0B7308",
"Z 	c #099304",
"` 	c #09A404",
" .	c #09B204",
"..	c #09A304",
"+.	c #099104",
"@.	c #086C05",
"              . .               ",
"        + @ # $ $ % & *         ",
"      = - ; > , , ' ; - )       ",
"    ! ~ { ] ^ / / ^ ] ( ~ !     ",
"  _ : < < [ < < } < < < < |     ",
"  1 2 < < 3 < < 4 < < 5 6 2 7   ",
"  8 9 < < 0 < < 0 < < a b c d   ",
"  e f < < g < < g < < < < h i   ",
"j k l < < m < < m < < n < o p   ",
"  q r < < s < < s < < t < u v   ",
"  w x < < y < < z < < < < x A   ",
"    B C D E F G H F I D J K     ",
"    L M N O P Q Q P O R M L     ",
"      S T U V W W V U T S X Y   ",
"          Z `  . ...+.    Y Y Y ",
"              @.@.          Y Y "};
