/* XPM */
static char * baidu_xpm[] = {
"16 16 6 1",
" 	c #2118DA",
".	c #B9B1F3",
"+	c #524AE3",
"@	c #807BEB",
"#	c #FFFFFF",
"$	c #EBEBFF",
"#####$##########",
"####@ +##@+.####",
"###$   ..   $###",
"###.   .+   $###",
"$+@#+ +$@  +$###",
"   @$.$#$@@$@@$#",
"   +##$$###@   $",
"   @#.  +.#+   $",
"$+@$.    +$@   $",
"###.++.   +.@+.#",
"##@ +@$++ ++.###",
"#@ $..$@. $+ .##",
"# +$+ #.. $@ +$#",
"#  $.@$@$.$+  ##",
"#@  @@@ @@@+ @##",
"##.@@@...+++@$##"};
