/* XPM */
static char * google_xpm[] = {
"16 16 232 2",
"  	c None",
". 	c #FBFCFF",
"+ 	c #CCDBE2",
"@ 	c #205FA6",
"# 	c #044CA1",
"$ 	c #86ACD1",
"% 	c #FDFFFC",
"& 	c #F9F1EF",
"* 	c #C33F3A",
"= 	c #D50100",
"- 	c #FA0202",
"; 	c #FD0000",
"> 	c #FD0002",
", 	c #F60100",
"' 	c #EE0000",
") 	c #FCFBFF",
"! 	c #FEFFFF",
"~ 	c #5083B8",
"{ 	c #0057B9",
"] 	c #0263CC",
"^ 	c #0E62BC",
"/ 	c #DCE6F2",
"( 	c #FFFEFC",
"_ 	c #F6D4D5",
": 	c #E70C0A",
"< 	c #FE0103",
"[ 	c #FD0100",
"} 	c #EC0004",
"| 	c #E00200",
"1 	c #FFFFFF",
"2 	c #FBFBFB",
"3 	c #246CB6",
"4 	c #0063C8",
"5 	c #0066CF",
"6 	c #0059C1",
"7 	c #83AFD2",
"8 	c #FFFEFF",
"9 	c #FEFCFF",
"0 	c #E04646",
"a 	c #F90001",
"b 	c #FC0300",
"c 	c #F90101",
"d 	c #F00003",
"e 	c #EB0100",
"f 	c #DF0000",
"g 	c #FEFDFF",
"h 	c #FFFCFF",
"i 	c #3B7CBE",
"j 	c #025DC6",
"k 	c #0266C8",
"l 	c #025AC4",
"m 	c #578ECE",
"n 	c #FFFFFB",
"o 	c #DD5350",
"p 	c #F40004",
"q 	c #FF0100",
"r 	c #FD0003",
"s 	c #F30100",
"t 	c #E50000",
"u 	c #DA0203",
"v 	c #FFFFFD",
"w 	c #82A9D2",
"x 	c #0053B9",
"y 	c #0464CA",
"z 	c #0258BD",
"A 	c #5990C8",
"B 	c #FDFFFE",
"C 	c #FFF8FF",
"D 	c #C72928",
"E 	c #C21906",
"F 	c #B12611",
"G 	c #B62011",
"H 	c #CC1005",
"I 	c #E10200",
"J 	c #DBE1ED",
"K 	c #E8F1F6",
"L 	c #286CB5",
"M 	c #0054BB",
"N 	c #0E5DB9",
"O 	c #B9CFE4",
"P 	c #99B19B",
"Q 	c #1D7020",
"R 	c #009537",
"S 	c #03963D",
"T 	c #00933B",
"U 	c #098936",
"V 	c #3A652D",
"W 	c #8A2B0F",
"X 	c #275E9F",
"Y 	c #ACBED6",
"Z 	c #FFFDFE",
"` 	c #EFF2F9",
" .	c #A0BFDE",
"..	c #DAE2ED",
"+.	c #85B899",
"@.	c #00822C",
"#.	c #039A3B",
"$.	c #03983A",
"%.	c #009637",
"&.	c #009639",
"*.	c #01913A",
"=.	c #00933F",
"-.	c #018742",
";.	c #1556A8",
">.	c #104F9C",
",.	c #426FA6",
"'.	c #84A2BE",
").	c #BFDAC9",
"!.	c #02771F",
"~.	c #009B35",
"{.	c #009937",
"].	c #009A37",
"^.	c #01943C",
"/.	c #008F38",
"(.	c #018B3D",
"_.	c #01873E",
":.	c #2759A2",
"<.	c #1C55A4",
"[.	c #084A9E",
"}.	c #114898",
"|.	c #DFE8F1",
"1.	c #FEFEFE",
"2.	c #E1ECE4",
"3.	c #269A51",
"4.	c #00942D",
"5.	c #029739",
"6.	c #02973B",
"7.	c #009438",
"8.	c #02923B",
"9.	c #018F3D",
"0.	c #028B3D",
"a.	c #008938",
"b.	c #22498E",
"c.	c #385E9D",
"d.	c #567EB2",
"e.	c #6E90C0",
"f.	c #CFDAEE",
"g.	c #FEFFFD",
"h.	c #EBF2EB",
"i.	c #46A86B",
"j.	c #018D2D",
"k.	c #00963C",
"l.	c #008F3D",
"m.	c #008A3D",
"n.	c #00843D",
"o.	c #A6BBD0",
"p.	c #EBEEFD",
"q.	c #FAF0D5",
"r.	c #E8DDB0",
"s.	c #DECF96",
"t.	c #F7F3EA",
"u.	c #FAFCFB",
"v.	c #49A66D",
"w.	c #018D2A",
"x.	c #009338",
"y.	c #00903B",
"z.	c #028B39",
"A.	c #00883C",
"B.	c #00853C",
"C.	c #FFFDFF",
"D.	c #F3E9D0",
"E.	c #CEB038",
"F.	c #DFB00A",
"G.	c #E3B500",
"H.	c #E2AE02",
"I.	c #D6A92A",
"J.	c #F1ECD9",
"K.	c #D7E8E0",
"L.	c #0D863F",
"M.	c #009039",
"N.	c #038C3C",
"O.	c #02893D",
"P.	c #00853E",
"Q.	c #00813E",
"R.	c #F8FBF4",
"S.	c #CCA637",
"T.	c #EFB400",
"U.	c #FEC502",
"V.	c #FBC30A",
"W.	c #F6BE09",
"X.	c #EAAA00",
"Y.	c #DBB04A",
"Z.	c #259155",
"`.	c #008934",
" +	c #008D3B",
".+	c #00863D",
"++	c #058143",
"@+	c #017D3E",
"#+	c #F2ECDE",
"$+	c #D8A21B",
"%+	c #F7B910",
"&+	c #F1B90C",
"*+	c #F2B50F",
"=+	c #F0B20F",
"-+	c #F4B31B",
";+	c #E7AB2F",
">+	c #FFF9F3",
",+	c #F6FBFE",
"'+	c #1D854A",
")+	c #008639",
"!+	c #028541",
"~+	c #00863C",
"{+	c #028040",
"]+	c #007B3D",
"^+	c #FBFCFE",
"/+	c #DFB75F",
"(+	c #ECA70C",
"_+	c #F0B116",
":+	c #F1B215",
"<+	c #F1AA1E",
"[+	c #EEC47C",
"}+	c #A9CAB7",
"|+	c #037631",
"1+	c #01833B",
"2+	c #03823F",
"3+	c #007D3E",
"4+	c #007A3E",
"5+	c #007943",
"6+	c #FBF4EC",
"7+	c #EBC57C",
"8+	c #EFB64F",
"9+	c #F1B145",
"0+	c #EFB64D",
"a+	c #F6CE93",
"b+	c #F9FBF6",
"c+	c #D1E1DE",
"d+	c #1C7849",
"e+	c #007A34",
"f+	c #027C3F",
"g+	c #007C40",
"h+	c #007B3C",
"i+	c #007A41",
"  . + @ # $ % & * = - ; > , '   ",
") ! ~ { ] ^ / ( _ : ; < [ , } | ",
"1 2 3 4 5 6 7 8 9 0 a b c d e f ",
"g h i j k l m n 1 o p q r s t u ",
"v v w x y z A B C D E F G H I = ",
"J ! K L M N O ! P Q R S T U V W ",
"X Y Z `  ...B +.@.#.$.%.&.*.=.-.",
";.>.,.'.( n ).!.~.{.].^.^./.(._.",
":.<.[.}.|.1.2.3.4.5.6.7.8.9.0.a.",
"b.c.d.e.f.B g.h.i.j.k.T T l.m.n.",
"o.p.! q.r.s.t.1 u.v.w.x.y.z.A.B.",
"C.D.E.F.G.H.I.J.( K.L.M.N.O.P.Q.",
"R.S.T.U.V.W.X.Y.1.9 Z.`. +.+++@+",
"#+$+%+&+*+=+-+;+>+,+'+)+!+~+{+]+",
"^+/+(+_+:+-+<+[+! }+|+1+2+3+4+5+",
"  6+7+8+9+0+a+b+c+d+e+f+g+h+i+  "};
