/* XPM */
static char * wikipedia_xpm[] = {
"16 16 17 1",
" 	c None",
".	c #FCFDFC",
"+	c #B9BAB9",
"@	c #575857",
"#	c #484748",
"$	c #A9A8A9",
"%	c #7A7B7A",
"&	c #D8D9D8",
"*	c #696A69",
"=	c #848384",
"-	c #282828",
";	c #E9E8E9",
">	c #989898",
",	c #191819",
"'	c #C8C7C8",
")	c #040204",
"!	c #3C3A3C",
"................",
"................",
"................",
"+@#+.$#%&.%@&&*@",
".=-+..#-&;=>.;*>",
".&,*;.>,$'*..;*.",
"..@,'.&#-=$..+$.",
"..+,=..>)@..;=+.",
"...##&.&!#..&%..",
"...=)$.&!-+.>>..",
"....-@;$*!*.=;..",
"....=!%$&%->=...",
"....$--$.+--'...",
".....##&..*-....",
".....+'...&+....",
"................"};
