/* XPM */
static char * wiki_xpm[] = {
"48 48 213 2",
"  	c None",
". 	c #ACACAC",
"+ 	c #ADADAD",
"@ 	c #C5C5C5",
"# 	c #C6C6C6",
"$ 	c #C7C7C7",
"% 	c #C9C9C9",
"& 	c #A8A8A8",
"* 	c #C2C2C2",
"= 	c #C4C4C4",
"- 	c #A7A7A7",
"; 	c #A8A8A8",
"> 	c #AAAAAA",
", 	c #BEBEBE",
"' 	c #C2C2C2",
") 	c #050505",
"! 	c #070707",
"~ 	c #090909",
"{ 	c #0C0C0C",
"] 	c #0E0E0E",
"^ 	c #101010",
"/ 	c #131313",
"( 	c #151515",
"_ 	c #171717",
": 	c #181818",
"< 	c #1A1A1A",
"[ 	c #1B1B1B",
"} 	c #1C1C1C",
"| 	c #1E1E1E",
"1 	c #1F1F1F",
"2 	c #212121",
"3 	c #222222",
"4 	c #232323",
"5 	c #242424",
"6 	c #252525",
"7 	c #262626",
"8 	c #272727",
"9 	c #292929",
"0 	c #2A2A2A",
"a 	c #2B2B2B",
"b 	c #2C2C2C",
"c 	c #2D2D2D",
"d 	c #2E2E2E",
"e 	c #313131",
"f 	c #323232",
"g 	c #333333",
"h 	c #343434",
"i 	c #353535",
"j 	c #363636",
"k 	c #373737",
"l 	c #393939",
"m 	c #3B3B3B",
"n 	c #3D3D3D",
"o 	c #414141",
"p 	c #424242",
"q 	c #444444",
"r 	c #454545",
"s 	c #474747",
"t 	c #4C4C4C",
"u 	c #4D4D4D",
"v 	c #4F4F4F",
"w 	c #535353",
"x 	c #565656",
"y 	c #5B5B5B",
"z 	c #5E5E5E",
"A 	c #626262",
"B 	c #636363",
"C 	c #666666",
"D 	c #676767",
"E 	c #6B6B6B",
"F 	c #6C6C6C",
"G 	c #6E6E6E",
"H 	c #727272",
"I 	c #757575",
"J 	c #767676",
"K 	c #777777",
"L 	c #797979",
"M 	c #7B7B7B",
"N 	c #7D7D7D",
"O 	c #7E7E7E",
"P 	c #7F7F7F",
"Q 	c #808080",
"R 	c #818181",
"S 	c #838383",
"T 	c #858585",
"U 	c #868686",
"V 	c #878787",
"W 	c #888888",
"X 	c #898989",
"Y 	c #8B8B8B",
"Z 	c #8C8C8C",
"` 	c #8F8F8F",
" .	c #909090",
"..	c #919191",
"+.	c #929292",
"@.	c #939393",
"#.	c #949494",
"$.	c #959595",
"%.	c #969696",
"&.	c #989898",
"*.	c #9C9C9C",
"=.	c #A2A2A2",
"-.	c #A3A3A3",
";.	c #A4A4A3",
">.	c #A4A4A4",
",.	c #A5A5A5",
"'.	c #A6A6A6",
").	c #A7A7A7",
"!.	c #A8A8A8",
"~.	c #A9A9A9",
"{.	c #AAAAAA",
"].	c #ABABAB",
"^.	c #ACACAC",
"/.	c #ADADAD",
"(.	c #AEAEAE",
"_.	c #AFAFAF",
":.	c #B0B0B0",
"<.	c #B1B1B1",
"[.	c #B2B2B2",
"}.	c #B3B3B3",
"|.	c #B4B4B4",
"1.	c #B5B5B5",
"2.	c #B6B6B6",
"3.	c #B7B7B7",
"4.	c #B8B8B8",
"5.	c #BABABA",
"6.	c #BABBBA",
"7.	c #BBBBBB",
"8.	c #BCBCBC",
"9.	c #BDBDBD",
"0.	c #BEBEBE",
"a.	c #BEBFBE",
"b.	c #BFBFBF",
"c.	c #C0C0C0",
"d.	c #C1C1C1",
"e.	c #C2C2C2",
"f.	c #C5C5C5",
"g.	c #C6C6C5",
"h.	c #C6C6C6",
"i.	c #C7C7C7",
"j.	c #C8C8C8",
"k.	c #CACACA",
"l.	c #CBCBCB",
"m.	c #CCCCCC",
"n.	c #CECECE",
"o.	c #CFCFCF",
"p.	c #D1D1D1",
"q.	c #D2D2D2",
"r.	c #D3D3D3",
"s.	c #D4D4D4",
"t.	c #D5D5D5",
"u.	c #D6D6D6",
"v.	c #D7D7D7",
"w.	c #DADADA",
"x.	c #DBDADA",
"y.	c #DBDBDA",
"z.	c #DBDBDB",
"A.	c #DCDBDB",
"B.	c #DCDCDB",
"C.	c #DCDCDC",
"D.	c #DCDDDC",
"E.	c #DDDDDC",
"F.	c #DDDDDD",
"G.	c #DEDEDE",
"H.	c #DFDFDE",
"I.	c #DFDFDF",
"J.	c #E0E0DF",
"K.	c #E0E0E0",
"L.	c #E1E1E0",
"M.	c #E1E1E1",
"N.	c #E2E2E1",
"O.	c #E2E2E2",
"P.	c #E3E3E3",
"Q.	c #E4E4E4",
"R.	c #E5E5E4",
"S.	c #E5E5E5",
"T.	c #E6E6E6",
"U.	c #E7E6E6",
"V.	c #E7E7E7",
"W.	c #E8E8E8",
"X.	c #E9E9E8",
"Y.	c #E9E9E9",
"Z.	c #EAEAEA",
"`.	c #EBEBEB",
" +	c #ECECEB",
".+	c #ECECEC",
"++	c #EDEDED",
"@+	c #EDEEED",
"#+	c #EEEEED",
"$+	c #EEEEEE",
"%+	c #EFEFEE",
"&+	c #EFEFEF",
"*+	c #F0F0F0",
"=+	c #F1F1F1",
"-+	c #F2F2F1",
";+	c #F2F2F2",
">+	c #F3F2F2",
",+	c #F3F3F2",
"'+	c #F3F3F3",
")+	c #F4F4F4",
"!+	c #F5F5F4",
"~+	c #F5F5F5",
"{+	c #F6F6F5",
"]+	c #F6F6F6",
"^+	c #F7F7F7",
"/+	c #F8F8F8",
"(+	c #F9F9F9",
"_+	c #FAFAFA",
":+	c #FBFBFB",
"<+	c #FCFCFC",
"[+	c #FDFDFD",
"}+	c #FEFEFE",
"|+	c #FFFFFF",
"      ' 9.0.0.b.0.c.0.0.0.a.b.c.c.0.0.c.0.b.c.c.c.b.0.0.c.c.c.0.c.0.c.0.c.0.c.c.c.0.0.c.'       ",
"  * h.M.^+[+}+}+[+}+}+}+[+}+}+}+}+[+}+}+[+[+[+}+}+[+}+[+}+}+[+}+[+[+[+}+[+[+[+[+}+[+[+]+M.j.=   ",
"  e.)+<+[+_+_+:+_+[+_+[+_+[+[+_+[+_+_+[+[+[+_+_+[+_+[+_+_+[+[+_+[+[+_+[+[+[+_+:+_+[+[+[+<+;+0.  ",
", O.:+<+(+<+<+(+(+<+<+(+(+<+<+(+<+_+(+<+(+<+(+(+(+<+(+(+<+(+<+(+<+<+(+(+<+:+<+<+(+(+(+(+(+[+I.' ",
"8.(+(+/+:+:+/+/+/+:+/+/+/+:+/+/+/+:+/+/+/+:+:+/+:+/+/+/+:+/+:+/+/+:+:+/+:+:+:+/+/+/+:+/+:+<+)+7.",
"8.<+^+_+_+^+/+_+_+_+_+^+^+_+_+^+^+_+_+^+^+_+_+^+_+_+_+_+_+^+^+/+^+^+^+^+^+_+^+_+_+^+_+^+^+^+<+5.",
"7._+]+(+(+(+]+(+(+]+]+(+]+(+(+(+]+]+(+]+]+]+]+(+(+]+]+(+(+(+(+(+(+(+(+]+(+(+/+]+]+]+(+(+(+]+_+6.",
"4.:+)+^+)+)+)+^+)+)+^+^+^+)+)+^+)+^+^+)+^+)+^+^+^+)+^+^+)+^+~+^+^+)+^+^+)+^+)+)+)+)+)+^+)+)+(+4.",
"3._+]+'+]+]+'+'+'+]+]+]+'+'+{+]+'+]+'+'+~+'+)+'+'+'+'+'+'+'+'+'+'+]+'+]+]+'+'+]+'+'+'+'+'+'+(+3.",
"4._+~+;+~+>+~+~+~+~+~+~+;+,+;+!+~+~+;+;+~+~+~+~+;+~+;+;+~+~+~+~+'+;+;+;+~+;+~+~+;+~+~+~+~+;+(+2.",
"4.(+)+)+=+)+)+'+=+)+)+)+)+=+)+=+)+=+)+)+)+)+=+)+)+=+=+)+)+=+)+)+)+)+)+)+=+;+)+)+)+=+)+=+)+=+/+4.",
"|.(+=+*+'+'+'+-+*+*+'+*+*+'+'+'+*+*+*+*+'+'+*+'+'+'+'+'+*+'+*+'+'+'+'+'+*+'+*+'+'+;+'+'+*+'+^+1.",
"1./+;+=+&+;+;+&+;+;+;+;+;+&+&+-+&+&+&+&+&+;+&+;+;+;+;+&+;+&+;+;+;+;+&+&+;+&+;+&+;+&+&+&+;+&+/+|.",
"1.]+=+=+=+%+$+$+$+=+=+=+=+$+$+=+$+$+=+$+$+=+=+$+$+=+=+*+=+=+=+$+$+=+=+$+=+=+$+=+$+$+=+$+$+$+/+1.",
"|.]+++++*+++g g g g g g g g g ++++g g g g g g g *+++$+g g g g g g ++++..g g g g g ..*+++++*+]+1.",
"}.^+&+$+.+&+|+m.P e e e e <.|+.+&+|+,.e e e 0.|+.+&+.+|+0.e e ,.|+&+&+]+|+O e H S.]+&+.+.+&+~+[.",
":.~+`.`.$+`.$+;+/+%.d d d '+$+`.$+$+~+X d d K $+$+$+$+++*.d :.)+$+$+$+$+$+L m .+$+$+`.`.$+`.]+}.",
"[.]+Z.++Z.++++++Z.Y.l b b =.++++++++.+`.l b b 9.Z.++Z.M.q G )+++Z.++Z.Z.t.b $.`.++++++++Z.Z.)+:.",
"<.)+Y.Y.Y..+.+Y..+++#.0 0 v .+.+ +Y.Y.Z.#.0 0 y Y..+.+Y 0 I.`.Y..+Y.Z.Y.O 0 C.Y.Y..+.+Z.Y..+~+[.",
"/.'+Z.V.V.V.Z.V.Z.V.T.8 8 8 3.V.V.Z.V.Z.W.i 8 8 3.V.B.g @.Z.V.V.Z.V.Z.z.g K Z.Z.Z.V.Y.Z.Z.V.)+:.",
"^.;+Y.X.T.Y.T.Y.T.Y.Z.J 6 6 x Y.Y.Y.Y.V.W...6 6 x Y.G g V.Y.Y.Y.T.T.Y.V 6 C.Y.T.T.T.T.Y.T.T.)+/.",
"^.'+T.S.W.W.W.S.S.S.S.z.4 4 4 c.S.S.W.S.W.T.e 4 4 *.4 ].V.S.W.S.S.S.S.n I `.W.S.S.S.U.W.W.W.;+_.",
"/.=+V.V.Q.V.Q.V.Q.V.T.V.C 2 2 F V.V.V.Q.Q.T.` 2 2 2 n $+T.V.V.V.Q.V.*.2 n.Q.Q.Q.Q.Q.V.Q.Q.Q.=+(.",
"^.=+P.T.P.P.T.T.T.P.T.P.d.| | | k.P.P.T.P.P.R.b | | !.Q.P.T.T.T.T.P.k x W.P.P.Q.T.T.T.T.T.T.=+].",
"^.;+S.O.S.S.S.S.S.O.O.S..+s } } D O.S.O.S.S.V.Z } } j O.S.S.S.O.O.<.} d.S.S.S.S.S.O.S.O.O.S.*+{.",
"].=+Q.Q.Q.M.Q.N.M.M.Q.M.Q.,.< < 7 v.M.Q.M.N.M.T < < < &.Q.M.Q.M.M.u w `.Q.M.M.M.M.Q.Q.M.M.M.=+~.",
"{.=+P.P.P.P.K.P.K.K.P.K.K..+h _ _ N K.K.P.K.u.4 h _ _ e P.P.P.P.5._ <.P.K.P.P.K.K.P.P.P.K.K.&+~.",
").*+O.M.O.I.I.O.O.O.O.I.I.O.%.( ( 3 q.I.O.I.M f .+5 ( ( #.O.O.O.B f Y.O.I.I.I.I.O.M.I.O.O.O.*+{.",
"'.*+M.M.G.M.M.M.G.G.M.M.G.M.I.3 / / @.G.M.f./ [.L.W / / c M.M.g./ >.M.G.G.M.G.M.I.K.M.G.G.I.*+).",
"!.$+F.K.F.H.K.K.F.K.F.K.K.K.O.U ^ ^ a J.K.z t Z.K.K.1 ^ ^ +.K.E d .+F.K.K.K.K.F.K.F.K.F.F.K.$+~.",
"'.$+G.z.G.z.G.z.z.G.G.G.G.z.G.p.] ] ]  .!.] k.G.G.F.T ] ] 9 n.[ =.G.z.G.G.G.G.z.G.z.z.G.z.G.++'.",
"-.$+w.w.E.F.F.C.w.w.w.w.F.z.F.M.D { { i p D P.F.C.F.K.[ { { f [ C.F.F.w.F.F.z.w.F.w.F.w.w.w..+>.",
"'..+w.w.w.F.z.F.F.w.F.w.w.w.w.w.s.~ ~ ~ : t.F.F.w.F.I.S ~ ~ ~ S I.F.F.F.F.w.w.F.w.F.F.w.A.F..+>.",
"'.$+F.F.C.F.F.w.w.F.w.F.w.F.F.w.M.r ! ! R M.F.w.F.F.w.K.! ! _ G.F.F.F.F.w.F.F.F.w.w.F.F.w.w..+'.",
"-.$+F.w.F.w.F.F.w.F.F.B.F.F.w.w.F.5.) 5 K.w.w.C.F.w.w.I.A ) Q I.w.w.F.w.w.F.F.F.w.F.F.F.w.w..+>.",
"'.$+w.w.F.w.F.F.C.F.F.w.w.w.w.F.F.P.f ^.C.w.F.w.w.F.w.w.r.o o.w.F.w.w.F.F.F.F.F.w.F.z.F.w.w..+'.",
"'..+F.F.F.w.w.w.w.F.F.F.F.w.F.w.w.w.w.F.F.w.w.w.F.w.w.F.F.F.w.w.w.w.w.F.F.w.F.w.F.w.w.w.w.F..+'.",
"'.$+F.w.w.w.C.C.F.E.w.w.F.F.w.F.w.w.F.C.w.F.w.w.F.w.w.w.F.w.w.F.w.F.F.w.w.F.F.w.w.w.F.w.z.F..+'.",
",.++F.w.w.F.w.F.E.F.F.F.w.F.w.F.F.w.F.w.w.F.F.C.w.w.F.w.w.w.F.F.z.w.w.w.F.F.w.F.w.w.F.w.F.w..+'.",
"'.$+F.w.w.F.x.w.z.F.F.F.w.F.F.F.F.F.F.w.w.w.w.w.F.w.w.w.w.w.w.F.F.w.w.F.w.w.w.F.F.F.F.F.C.w..+>.",
"-.$+F.F.F.w.F.F.F.w.z.F.w.F.F.w.w.D.w.C.w.F.w.w.F.C.w.w.w.w.w.F.F.F.w.F.F.F.y.F.F.w.C.F.w.w..+'.",
"-.$+w.F.F.F.F.w.w.w.F.F.F.F.F.w.F.F.z.F.F.F.F.F.w.w.w.w.F.w.w.F.w.F.F.w.w.w.F.w.w.F.w.F.F.F..+>.",
"-.$+G.w.w.w.F.w.w.F.F.F.w.w.w.w.F.F.F.F.F.w.F.w.w.w.w.F.w.F.w.w.F.F.w.F.w.w.F.F.w.w.F.F.F.C.`.>.",
"'.Q.O.F.F.w.F.F.F.F.w.F.w.F.w.F.F.F.F.w.F.F.F.w.F.F.w.F.F.F.F.F.F.w.w.F.F.F.w.F.w.F.w.w.F.O.T.>.",
"; l.Z.G.w.F.w.x.F.w.w.z.F.w.F.w.w.C.C.w.w.w.w.w.F.w.w.w.F.w.w.F.w.w.F.F.F.w.F.w.F.w.F.w.C.Z.h.> ",
"  {.K.Z.Q.C.w.F.F.w.w.F.F.w.F.F.w.F.z.w.w.w.F.F.F.w.w.w.F.F.z.w.w.w.F.z.z.F.F.w.F.F.G.M.`.K.{.  ",
"  & !.i.S..+$+.+.+$+$+$+$+$+.+$+.+$+.+.+#+.+.+$+.+.+$+$+.+.+.+@+.+.+$+$+++$+.+.+$+.+.+P.h.~.&   ",
"      - '.-.'.-.-.-.;.'.,.'.>.'.'.'.'.-.'.-.>.'.-.'.'.,.'.'.-.-.'.'.-.'.'.-.-.'.'.'.-.'.-       "};
