/* XPM */
static char * baidu_xpm[] = {
"32 32 254 2",
"  	c None",
". 	c #6A93E6",
"+ 	c #6993E5",
"@ 	c #6892E5",
"# 	c #6791E5",
"$ 	c #6791E4",
"% 	c #80A4EE",
"& 	c #8CB1FA",
"* 	c #8EB3FE",
"= 	c #6690E4",
"- 	c #84ACFB",
"; 	c #8DB2FD",
"> 	c #91B5FD",
", 	c #C1D5FE",
"' 	c #D1E0FE",
") 	c #B4CCFE",
"! 	c #9ABBFE",
"~ 	c #CBDCFE",
"{ 	c #D0DFFE",
"] 	c #A5C2FE",
"^ 	c #648EE4",
"/ 	c #6E9DFC",
"( 	c #D8E5FE",
"_ 	c #FFFFFF",
": 	c #AFC9FD",
"< 	c #78A4FC",
"[ 	c #F1F6FF",
"} 	c #FCFDFF",
"| 	c #8EB3FD",
"1 	c #628DE3",
"2 	c #6B9BFB",
"3 	c #8EB3FC",
"4 	c #F5F8FF",
"5 	c #719FFB",
"6 	c #B4CDFD",
"7 	c #D4E2FE",
"8 	c #608CE3",
"9 	c #6999FA",
"0 	c #AEC8FC",
"a 	c #82AAFB",
"b 	c #D3E1FE",
"c 	c #F4F8FF",
"d 	c #5E8AE2",
"e 	c #6697F9",
"f 	c #83ABFA",
"g 	c #D6E3FD",
"h 	c #F6F9FF",
"i 	c #5C89E2",
"j 	c #6395F8",
"k 	c #97B8FA",
"l 	c #FDFEFF",
"m 	c #6C9BF8",
"n 	c #BDD2FC",
"o 	c #E0EAFE",
"p 	c #5A87E1",
"q 	c #6092F7",
"r 	c #75A0F8",
"s 	c #C3D6FC",
"t 	c #BFD4FC",
"u 	c #95B6F9",
"v 	c #6897F7",
"w 	c #F4F7FE",
"x 	c #CEDEFC",
"y 	c #84ABF8",
"z 	c #A7C3FA",
"A 	c #5885E1",
"B 	c #5D90F5",
"C 	c #709DF6",
"D 	c #F2F6FE",
"E 	c #C0D4FB",
"F 	c #8DB1F8",
"G 	c #FBFCFF",
"H 	c #ECF2FE",
"I 	c #B1C9FA",
"J 	c #D1E0FC",
"K 	c #6192F6",
"L 	c #85ABF8",
"M 	c #87ADF8",
"N 	c #6796F6",
"O 	c #5684E0",
"P 	c #5A8DF4",
"Q 	c #C1D4FB",
"R 	c #81A8F7",
"S 	c #6998F5",
"T 	c #85ABF7",
"U 	c #6091F4",
"V 	c #719DF6",
"W 	c #83A9F7",
"X 	c #5C8FF4",
"Y 	c #F5F8FE",
"Z 	c #8CB0F7",
"` 	c #5382DF",
" .	c #578BF3",
"..	c #EDF3FE",
"+.	c #AAC4F9",
"@.	c #A0BDF8",
"#.	c #6A98F4",
"$.	c #5180DF",
"%.	c #5388F1",
"&.	c #F1F5FE",
"*.	c #ACC6F8",
"=.	c #82A8F5",
"-.	c #D5E2FC",
";.	c #EBF1FD",
">.	c #9AB9F7",
",.	c #DFE9FC",
"'.	c #A6C1F8",
").	c #4E7EDE",
"!.	c #5085F0",
"~.	c #C9DAFA",
"{.	c #81A8F4",
"].	c #94B4F6",
"^.	c #BDD1F9",
"/.	c #4C7CDD",
"(.	c #4C82EF",
"_.	c #709BF2",
":.	c #D3E0FB",
"<.	c #4E84EF",
"[.	c #5F90F0",
"}.	c #F7F9FE",
"|.	c #DDE8FC",
"1.	c #A7C1F7",
"2.	c #497ADD",
"3.	c #4980ED",
"4.	c #6F9BF1",
"5.	c #C5D7F9",
"6.	c #DDE7FC",
"7.	c #AEC6F7",
"8.	c #5186EE",
"9.	c #4F84EE",
"0.	c #D8E4FB",
"a.	c #D4E1FB",
"b.	c #96B6F5",
"c.	c #FDFDFF",
"d.	c #6593F0",
"e.	c #4779DC",
"f.	c #457DEC",
"g.	c #4E83ED",
"h.	c #CDDCFA",
"i.	c #DCE7FB",
"j.	c #6B97F0",
"k.	c #EEF3FD",
"l.	c #4C81EC",
"m.	c #F6F9FE",
"n.	c #85A9F2",
"o.	c #4477DB",
"p.	c #427AEA",
"q.	c #5F8EEE",
"r.	c #DEE8FB",
"s.	c #D3E0FA",
"t.	c #E9EFFD",
"u.	c #D0DEFA",
"v.	c #4F83EC",
"w.	c #6895EE",
"x.	c #497FEB",
"y.	c #4275DB",
"z.	c #3F77E9",
"A.	c #85A9F1",
"B.	c #DBE5FB",
"C.	c #E2EAFC",
"D.	c #D2DFFA",
"E.	c #E8EFFC",
"F.	c #E4ECFC",
"G.	c #5A8BEC",
"H.	c #3F73DA",
"I.	c #3B75E8",
"J.	c #A7C1F5",
"K.	c #EAF0FD",
"L.	c #5B8BEB",
"M.	c #608FEC",
"N.	c #6290EC",
"O.	c #F8FAFE",
"P.	c #97B6F3",
"Q.	c #4078E8",
"R.	c #3D71DA",
"S.	c #3872E6",
"T.	c #83A7F0",
"U.	c #6793EC",
"V.	c #4F83E9",
"W.	c #6492EC",
"X.	c #E8EEFC",
"Y.	c #D2DFF9",
"Z.	c #4179E7",
"`.	c #3B6FD9",
" +	c #356FE5",
".+	c #3771E5",
"++	c #ECF1FD",
"@+	c #4178E7",
"#+	c #86A9EF",
"$+	c #E7EEFC",
"%+	c #9DBAF2",
"&+	c #386ED8",
"*+	c #326DE4",
"=+	c #5183E8",
"-+	c #3E76E5",
";+	c #3972E5",
">+	c #E9F0FC",
",+	c #7CA2EE",
"'+	c #4077E6",
")+	c #C3D4F7",
"!+	c #366CD8",
"~+	c #2F6BE3",
"{+	c #3670E4",
"]+	c #84A8EE",
"^+	c #457AE6",
"/+	c #E6EEFC",
"(+	c #628FEA",
"_+	c #4077E5",
":+	c #3D75E5",
"<+	c #ACC4F4",
"[+	c #346BD7",
"}+	c #2C68E1",
"|+	c #A3BDF2",
"1+	c #83A6EE",
"2+	c #457AE5",
"3+	c #6A95EA",
"4+	c #CBDAF8",
"5+	c #E6EDFC",
"6+	c #5183E7",
"7+	c #4A7EE6",
"8+	c #6C96EA",
"9+	c #3269D7",
"0+	c #2966E0",
"a+	c #336DE2",
"b+	c #DEE8FA",
"c+	c #CDDBF8",
"d+	c #2B68E1",
"e+	c #3068D6",
"f+	c #2664DF",
"g+	c #366FE1",
"h+	c #ADC5F3",
"i+	c #F7FAFE",
"j+	c #EDF2FC",
"k+	c #C2D3F6",
"l+	c #94B2EF",
"m+	c #6993E9",
"n+	c #6490E8",
"o+	c #F0F4FD",
"p+	c #B8CCF5",
"q+	c #3871E2",
"r+	c #2F66D6",
"s+	c #2563DD",
"t+	c #2462DE",
"u+	c #4B7EE4",
"v+	c #5081E5",
"w+	c #2764DF",
"x+	c #3971E1",
"y+	c #2D65D6",
"z+	c #2A64D8",
"A+	c #2361DD",
"B+	c #2260DD",
"C+	c #2B64D5",
"D+	c #2C64D5",
"E+	c #2A63D5",
"    . + + + + + + + + + + + + + + + + + + + + + + + + + + .     ",
"  @ @ @ @ @ @ @ @ @ @ @ @ @ @ @ @ @ @ @ @ @ @ @ @ @ @ @ @ @ @   ",
"# $ % & * * * * * * * * * * * * * * * * * * * * * * * * & % $ # ",
"= = - ; ; ; ; ; ; ; > , ' ) ; ; ; ; ! ~ { ] ; ; ; ; ; ; ; - = = ",
"^ ^ / / / / / / / / ( _ _ _ : / / < [ _ _ } | / / / / / / / ^ ^ ",
"1 1 2 2 2 2 2 2 2 3 _ _ _ _ 4 5 2 6 _ _ _ _ 7 2 2 2 2 2 2 2 1 1 ",
"8 8 9 9 9 9 9 9 9 0 _ _ _ _ _ a 9 b _ _ _ _ c 9 9 9 9 9 9 9 8 8 ",
"d d e e e e e e e 0 _ _ _ _ _ f e g _ _ _ _ h e e e e e e e d d ",
"i i j j j j j j j k _ _ _ _ l m j n _ _ _ _ o j j j j j j j i i ",
"p p q q r s t u q v w _ _ _ x q q y _ _ _ _ z q q q q q q q p p ",
"A A B C D _ _ _ E B F G _ H C B B B I _ _ J K B L M N B B B A A ",
"O O P Q _ _ _ _ _ R P S T U P P P P P V W P X x _ _ Y Z P P O O ",
"` `  ..._ _ _ _ _ +. . . . . . . . . . . . .@._ _ _ _ G #. .` ` ",
"$.$.%.&._ _ _ _ _ *.%.%.%.=.-._ ;.>.%.%.%.%.,._ _ _ _ _ '.%.$.$.",
").).!.~._ _ _ _ _ {.!.!.]._ _ _ _ _ ].!.!.!.Y _ _ _ _ _ ^.!.).).",
"/./.(._.G _ _ _ :.<.(.[.}._ _ _ _ _ }.[.(.(.|._ _ _ _ _ 1.(././.",
"2.2.3.3.4.5.6.7.8.3.9.0._ _ _ _ _ _ _ a.9.3.b._ _ _ _ c.d.3.2.2.",
"e.e.f.f.f.f.f.f.f.g.h._ i.j.j.k._ _ _ _ h.l.f.7._ _ m.n.f.f.e.e.",
"o.o.p.p.p.p.p.p.q.r._ _ s.p.p.t._ _ _ _ _ u.v.p.v.w.x.p.p.p.o.o.",
"y.y.z.z.z.z.z.A.m._ B.C.D.z.z.E._ _ _ _ _ _ F.G.z.z.z.z.z.z.y.y.",
"H.H.I.I.I.I.J._ K.L.I.I.M.I.I.E.N.N._ c.N.N._ O.P.Q.I.I.I.I.H.H.",
"R.R.S.S.S.T._ _ U.S.V.W.S.S.S.X.S.S._ _ S.S._ _ _ Y.Z.S.S.S.R.R.",
"`.`. + +.+++_ c. +@+Y _ #+ + +$+.+ +_ _  + +_ _ _ _ %+ + + +`.`.",
"&+&+*+*+=+_ _ _ -+;+>+_ ,+*+*+$+'+*+k.k.*+*+_ _ _ _ )+*+*+*+&+&+",
"!+!+~+~+{+Y _ _ ]+~+~+^+~+~+~+/+(+~+_+:+~+~+_ _ _ _ <+~+~+~+!+!+",
"[+[+}+}+}+|+_ _ O.1+2+3+4+}+}+5+Y.6+7+8+6+}+_ _ _ _ 3+}+}+}+[+[+",
"9+9+0+0+0+a+b+_ _ _ _ _ _ _ _ _ _ _ _ _ _ _ _ _ _ c+d+0+0+0+9+9+",
"e+e+f+f+f+f+g+h+i+_ _ _ j+k+l+m+n+l+k+o+_ _ _ _ p+q+f+f+f+f+e+e+",
"r+r+s+t+t+t+t+t+t+u+v+w+t+t+t+t+t+t+t+t+w+v+v+x+t+t+t+t+t+s+r+r+",
"y+y+z+A+B+B+B+B+B+B+B+B+B+B+B+B+B+B+B+B+B+B+B+B+B+B+B+B+A+z+y+y+",
"  C+D+D+D+D+D+D+D+D+D+D+D+D+D+D+D+D+D+D+D+D+D+D+D+D+D+D+D+D+C+  ",
"    E+E+E+E+E+E+E+E+E+E+E+E+E+E+E+E+E+E+E+E+E+E+E+E+E+E+E+E+    "};
