/* XPM */
static char * 116_xpm[] = {
"48 48 454 2",
"  	c #258C02",
". 	c #F7FBF6",
"+ 	c #F7FAF5",
"@ 	c #F6FAF4",
"# 	c #F5F9F3",
"$ 	c #F4F9F2",
"% 	c #F3F8F1",
"& 	c #F2F8F0",
"* 	c #F1F7EE",
"= 	c #EFF7ED",
"- 	c #EEF6EC",
"; 	c #EDF5EA",
"> 	c #ECF5E9",
", 	c #D7EBCF",
"' 	c #AAD599",
") 	c #8DC775",
"! 	c #71BA53",
"~ 	c #54AD2F",
"{ 	c #56AF31",
"] 	c #8FCA77",
"^ 	c #C8E3BD",
"/ 	c #A4D291",
"( 	c #82C268",
"_ 	c #65B543",
": 	c #4EAB27",
"< 	c #63B541",
"[ 	c #B9DDAB",
"} 	c #D3E9CA",
"| 	c #39A00D",
"1 	c #39A10D",
"2 	c #39A20D",
"3 	c #44A61A",
"4 	c #8BC872",
"5 	c #EAF4E7",
"6 	c #5EB13C",
"7 	c #3AA50D",
"8 	c #3BA60D",
"9 	c #3BA70D",
"0 	c #3CA90E",
"a 	c #3CA80D",
"b 	c #A4D490",
"c 	c #D3E9CB",
"d 	c #3AA010",
"e 	c #3AA30D",
"f 	c #3BA50D",
"g 	c #44AB18",
"h 	c #D7EBD0",
"i 	c #E2F0DD",
"j 	c #83C269",
"k 	c #3BA110",
"l 	c #43AD17",
"m 	c #A6D890",
"n 	c #F5FAF3",
"o 	c #F5FAF4",
"p 	c #ECF5EA",
"q 	c #E9F3E5",
"r 	c #CAE4BF",
"s 	c #3DAC0E",
"t 	c #3DAD0E",
"u 	c #3EAE0E",
"v 	c #6EC04B",
"w 	c #93CA7C",
"x 	c #A5D691",
"y 	c #B5DAA5",
"z 	c #4BA824",
"A 	c #3DAB0E",
"B 	c #6DC14A",
"C 	c #E3F3DC",
"D 	c #F3F9F1",
"E 	c #EAF4E6",
"F 	c #E7F2E4",
"G 	c #88C46F",
"H 	c #3EAF0E",
"I 	c #71C34D",
"J 	c #E5F1E1",
"K 	c #50AB2B",
"L 	c #AFDC9D",
"M 	c #8CC775",
"N 	c #3CAA0E",
"O 	c #A6DA90",
"P 	c #F9FCF8",
"Q 	c #EAF4E8",
"R 	c #E6F2E2",
"S 	c #E4F1DF",
"T 	c #6DB84E",
"U 	c #7EC460",
"V 	c #68BF44",
"W 	c #8FD073",
"X 	c #C5E2BA",
"Y 	c #62B43F",
"Z 	c #8ACB6E",
"` 	c #4DB422",
" .	c #D2EBC8",
"..	c #E0EFDA",
"+.	c #40AF11",
"@.	c #B4E0A1",
"#.	c #F1F8EF",
"$.	c #E4F1E0",
"%.	c #7FC660",
"&.	c #BDE3AF",
"*.	c #E9F4E6",
"=.	c #EDF6EB",
"-.	c #43AC16",
";.	c #55B82A",
">.	c #E8F3E5",
",.	c #D4E9CC",
"'.	c #5DB03A",
").	c #43B014",
"!.	c #BDE3AD",
"~.	c #E3F0DE",
"{.	c #DDEDD7",
"].	c #42A618",
"^.	c #3BA80E",
"/.	c #3DAE0E",
"(.	c #44B117",
"_.	c #E5F1E0",
":.	c #B1D9A1",
"<.	c #39A40D",
"[.	c #3CAB0E",
"}.	c #97D37E",
"|.	c #D9EBD2",
"1.	c #56AD32",
"2.	c #3CAC0E",
"3.	c #BEE4AF",
"4.	c #EDF5E9",
"5.	c #E1EFDD",
"6.	c #AFD7A0",
"7.	c #389F0C",
"8.	c #3AA70D",
"9.	c #3CAB0D",
"0.	c #3CAC0D",
"a.	c #75C354",
"b.	c #E2F0DE",
"c.	c #78BC5C",
"d.	c #39A20C",
"e.	c #3BA90D",
"f.	c #C6E5BA",
"g.	c #DFEEDB",
"h.	c #63B143",
"i.	c #3AA50C",
"j.	c #3BAA0D",
"k.	c #93D179",
"l.	c #EBF4E8",
"m.	c #D5E9CE",
"n.	c #D7EAD1",
"o.	c #E0EEDB",
"p.	c #80BF65",
"q.	c #379F0B",
"r.	c #3AA70C",
"s.	c #3BAA0C",
"t.	c #B0DC9D",
"u.	c #DEEDD9",
"v.	c #43A21B",
"w.	c #38A30B",
"x.	c #3BA90C",
"y.	c #49B01D",
"z.	c #8CC474",
"A.	c #369D0B",
"B.	c #3AA80C",
"C.	c #69BE45",
"D.	c #AAD399",
"E.	c #5EAE3C",
"F.	c #369C0B",
"G.	c #379D0B",
"H.	c #61B13E",
"I.	c #90C779",
"J.	c #DAEBD4",
"K.	c #4AA526",
"L.	c #36A00B",
"M.	c #38A60C",
"N.	c #39A80C",
"O.	c #3BA90F",
"P.	c #DDEED8",
"Q.	c #B6D9A9",
"R.	c #359B0B",
"S.	c #37A30C",
"T.	c #39A70C",
"U.	c #7EC661",
"V.	c #C6E1BC",
"W.	c #389C10",
"X.	c #369F0B",
"Y.	c #38A50C",
"Z.	c #3EAA12",
"`.	c #E3F2DD",
" +	c #DFEDDA",
".+	c #8EC578",
"++	c #349A0B",
"@+	c #359D0B",
"#+	c #37A10C",
"$+	c #56AE32",
"%+	c #D0E6C8",
"&+	c #BFDDB3",
"*+	c #33990A",
"=+	c #35A10B",
"-+	c #37A50B",
";+	c #37A60B",
">+	c #66BB44",
",+	c #DFEEDA",
"'+	c #86C16F",
")+	c #349C0A",
"!+	c #36A30B",
"~+	c #B1DBA0",
"{+	c #6AB34D",
"]+	c #339B0A",
"^+	c #36A10B",
"/+	c #7BC45E",
"(+	c #E1EFDB",
"_+	c #B5D8A7",
":+	c #32980A",
"<+	c #349D0A",
"[+	c #36A20B",
"}+	c #63B443",
"|+	c #DBECD5",
"1+	c #8EC479",
"2+	c #329809",
"3+	c #359F0A",
"4+	c #36A30A",
"5+	c #9CD186",
"6+	c #52A531",
"7+	c #339B09",
"8+	c #35A10A",
"9+	c #38A40D",
"0+	c #DBEDD5",
"a+	c #C7E1BD",
"b+	c #33960C",
"c+	c #B0DA9F",
"d+	c #7CBB64",
"e+	c #36A20A",
"f+	c #A2D190",
"g+	c #D9EBD3",
"h+	c #5BA93D",
"i+	c #319909",
"j+	c #339F09",
"k+	c #34A109",
"l+	c #D1E8C9",
"m+	c #C5E0BB",
"n+	c #309408",
"o+	c #329B09",
"p+	c #34A009",
"q+	c #64B743",
"r+	c #DCECD6",
"s+	c #95C782",
"t+	c #309608",
"u+	c #339D09",
"v+	c #C6E3BD",
"w+	c #6AB14E",
"x+	c #61B441",
"y+	c #D8EAD2",
"z+	c #CCE4C4",
"A+	c #30920A",
"B+	c #309808",
"C+	c #329D08",
"D+	c #329E08",
"E+	c #56AF34",
"F+	c #DEEDD8",
"G+	c #95C681",
"H+	c #2F9307",
"I+	c #319A08",
"J+	c #A5D493",
"K+	c #74B55B",
"L+	c #2F9508",
"M+	c #319C08",
"N+	c #CFE6C6",
"O+	c #84BE6D",
"P+	c #309708",
"Q+	c #42A51B",
"R+	c #D6E9D0",
"S+	c #9CC98B",
"T+	c #2D9007",
"U+	c #2F9707",
"V+	c #309B07",
"W+	c #8EC878",
"X+	c #63AB47",
"Y+	c #2D9207",
"Z+	c #2F9907",
"`+	c #61AA45",
" @	c #2E9407",
".@	c #BEDDB2",
"+@	c #D4E8CD",
"@@	c #33960D",
"#@	c #3CA015",
"$@	c #61A945",
"%@	c #2B9006",
"&@	c #2D9706",
"*@	c #2E9906",
"=@	c #BEDFB3",
"-@	c #CFE6C7",
";@	c #31900E",
">@	c #2C9306",
",@	c #2E9806",
"'@	c #53AB32",
")@	c #DAECD4",
"!@	c #63AB49",
"~@	c #8CC577",
"{@	c #3C9C18",
"]@	c #49A526",
"^@	c #D3E8CC",
"/@	c #CDE5C5",
"(@	c #2F8E0D",
"_@	c #2A9005",
":@	c #2C9505",
"<@	c #2C9605",
"[@	c #40A01D",
"}@	c #DBECD6",
"|@	c #9AC889",
"1@	c #298B05",
"2@	c #2B9205",
"3@	c #8CC576",
"4@	c #79B663",
"5@	c #369A12",
"6@	c #BBDBB0",
"7@	c #F2F8EF",
"8@	c #C3E0B8",
"9@	c #B7DAAA",
"0@	c #8AC475",
"a@	c #2B9405",
"b@	c #63B147",
"c@	c #D2E7CA",
"d@	c #A1CB91",
"e@	c #278804",
"f@	c #298F04",
"g@	c #2A9204",
"h@	c #2A9304",
"i@	c #80BE69",
"j@	c #D3E7CB",
"k@	c #68AA50",
"l@	c #288A04",
"m@	c #299104",
"n@	c #BDDDB1",
"o@	c #A7CE99",
"p@	c #288C04",
"q@	c #2A9104",
"r@	c #339410",
"s@	c #88BF74",
"t@	c #C6E0BC",
"u@	c #D4E8CC",
"v@	c #DDEDD6",
"w@	c #87BE74",
"x@	c #2D8F09",
"y@	c #299004",
"z@	c #94C981",
"A@	c #D0E6C9",
"B@	c #71AF5B",
"C@	c #268803",
"D@	c #278E03",
"E@	c #289103",
"F@	c #B2D7A5",
"G@	c #CEE5C7",
"H@	c #338C13",
"I@	c #268B03",
"J@	c #289003",
"K@	c #379915",
"L@	c #D9EBD4",
"M@	c #359015",
"N@	c #278F03",
"O@	c #278D03",
"P@	c #268A03",
"Q@	c #479A2B",
"R@	c #47992B",
"S@	c #459728",
"T@	c #258603",
"U@	c #258703",
"V@	c #2D9409",
"W@	c #CFE5C7",
"X@	c #3B901D",
"Y@	c #258802",
"Z@	c #278D02",
"`@	c #278F02",
" #	c #2F930B",
".#	c #D7EACF",
"+#	c #A7CD99",
"@#	c #248402",
"##	c #268B02",
"$#	c #278E02",
"%#	c #72B55A",
"&#	c #D0E5C8",
"*#	c #D1E6CA",
"=#	c #B0D2A3",
"-#	c #268C02",
";#	c #268A02",
">#	c #96C884",
",#	c #D5E8CE",
"'#	c #AFD2A3",
")#	c #228202",
"!#	c #248902",
"~#	c #258D02",
"{#	c #6AB052",
"]#	c #CDE4C5",
"^#	c #78B264",
"/#	c #238402",
"(#	c #248A02",
"_#	c #B0D5A4",
":#	c #DFEED9",
"<#	c #88BD76",
"[#	c #81BD6D",
"}#	c #80B66E",
"|#	c #228201",
"1#	c #238801",
"2#	c #248B01",
"3#	c #A7D099",
"4#	c #CCE4C3",
"5#	c #449229",
"6#	c #228401",
"7#	c #248901",
"8#	c #2C8F0A",
"9#	c #E8F3E3",
"0#	c #ACD19F",
"a#	c #339013",
"b#	c #248A01",
"c#	c #3B971C",
"d#	c #B9DAAE",
"e#	c #4E9834",
"f#	c #218200",
"g#	c #238700",
"h#	c #238900",
"i#	c #CAE3C2",
"j#	c #B6D7AB",
"k#	c #207E00",
"l#	c #228400",
"m#	c #238800",
"n#	c #63AB4A",
"o#	c #DEEED9",
"p#	c #ECF4E9",
"q#	c #97C687",
"r#	c #469B2A",
"s#	c #52A236",
"t#	c #A7CF99",
"u#	c #F1F8F0",
"v#	c #FFFFFF",
"w#	c #FEFFFE",
"x#	c #CDE4C4",
"y#	c #C9E2C0",
"z#	c #EFF6EC",
"A#	c #F6FAF5",
"B#	c #EFF6ED",
"C#	c #C6DFBD",
"D#	c #A6CE99",
"E#	c #A6CF99",
"F#	c #D3E7CC",
"G#	c #CBE3C2",
"H#	c #C7E2BE",
"I#	c #CBE4C3",
"J#	c #D5EACF",
"K#	c #D2E8CB",
"L#	c #CAE4C2",
"M#	c #C6E1BD",
"N#	c #C4DFBA",
"O#	c #C2DFB9",
"P#	c #C1DEB7",
"Q#	c #C0DEB6",
"R#	c #BFDDB5",
"S#	c #BEDDB4",
"T#	c #BDDCB3",
"U#	c #BCDCB2",
"                                                                                                ",
"  . . . . . . . . . . . . . . . . . . . . . . . . . . . . . . . . . . . . . . . . . . . . . .   ",
"  + + + + + + + + + + + + + + + + + + + + + + + + + + + + + + + + + + + + + + + + + + + + + +   ",
"  @ @ @ @ @ @ @ @ @ @ @ @ @ @ @ @ @ @ @ @ @ @ @ @ @ @ @ @ @ @ @ @ @ @ @ @ @ @ @ @ @ @ @ @ @ @   ",
"  # # # # # # # # # # # # # # # # # # # # # # # # # # # # # # # # # # # # # # # # # # # # # #   ",
"  $ $ $ $ $ $ $ $ $ $ $ $ $ $ $ $ $ $ $ $ $ $ $ $ $ $ $ $ $ $ $ $ $ $ $ $ $ $ $ $ $ $ $ $ $ $   ",
"  % % % % % % % % % % % % % % % % % % % % % % % % % % % % % % % % % % % % % % % % % % % % % %   ",
"  & & & & & & & & & & & & & & & & & & & & & & & & & & & & & & & & & & & & & & & & & & & & & &   ",
"  * * * * * * * * * * * * * * * * * * * * * * * * * * * * * * * * * * * * * * * * * * * * * *   ",
"  = = = = = = = = = = = = = = = = = = = = = = = = = = = = = = = = = = = = = = = = = = = = = =   ",
"  - - - - - - - - - - - - - - - - - - - - - - - - - - - - - - - - - - - - - - - - - - - - - -   ",
"  ; ; ; ; ; ; ; ; ; ; ; ; ; ; ; ; ; ; ; ; ; ; ; ; ; ; ; ; ; ; ; ; ; ; ; ; ; ; ; ; ; ; ; ; ; ;   ",
"  > > > > , ' ) ! ~ { ] > > > > > > ^ / ( _ : < [ > > > > > > > > > > > > } ! | 1 2 3 4 , > >   ",
"  5 5 5 5 6 1 7 8 9 0 a b 5 5 5 5 c d e f 9 a 0 g h 5 5 5 5 5 5 5 5 5 i j k e 9 l m n o p 5 5   ",
"  q q q r 1 9 s t u u u v q q q q w e 0 s t u u u x q q q q q q q q y z 2 9 A B C D E q q q q   ",
"  F F F G e A H H H H H I F F F J K 8 t H H H H H L F F F F F F F M | 7 N t O P Q F F F F F F   ",
"  R R S T U V u H H H H W R R R X Y Z ` u H H H H  .R R R R R ..! 1 8 A +.@.#.R R R R R R R R   ",
"  $.$.$.. @ %.s u H H H &.$.$.$.*.P =.-.s H H H ;.>.$.$.$.$.,.'.2 9 s ).!.- $.$.$.$.$.$.$.$.$.  ",
"  ~.~.~.~.{.].^.t /./.(._.~.~.~.~.~.:.<.[./././.}.~.~.~.~.|.1.2 9 2.t 3.4.~.~.~.~.~.~.~.~.~.~.  ",
"  5.5.5.5.6.7.8.9.0.0.a.b.5.5.5.5.5.c.d.e.0.0.0.f.5.5.5.g.h.7.i.j.0.k.l.5.5.5.5.m.n.5.5.5.5.5.  ",
"  o.o.o.o.p.q.r.s.s.s.t.o.o.o.o.o.u.v.w.x.s.s.y._.o.o.o.z.A.w.B.s.C.; o.o.o.D.E.F.G.H.I.J.o.o.  ",
"  u.u.u.u.K.L.M.N.N.O.P.u.u.u.u.u.Q.R.S.T.N.N.U.u.u.u.V.W.X.Y.N.Z.`. +u.u..+++@+#+S.S.#+$+%+u.  ",
"  {.{.{.&+*+=+-+;+;+>+,+{.{.{.{.{.'+)+!+;+;+;+~+{.{.{.{+]+^+-+;+/+(+{.{._+:+<+[+-+;+;+-+!+}+|+  ",
"  |+|+|+1+2+3+4+4+4+5+|+|+|+|+|+|+6+7+8+4+4+9+0+|+|+a+b+)+8+4+4+c+|+|+|+d+2+3+e+4+4+4+4+4+8+f+  ",
"  g+g+g+h+i+j+k+k+k+l+g+g+g+g+g+m+n+o+p+k+k+q+r+g+g+s+t+u+p+k+k+v+g+g+g+w+i+j+k+k+k+k+k+k+k+x+  ",
"  y+y+z+A+B+C+D+D+E+F+y+y+y+y+y+G+H+I+D+D+D+J+y+y+y+K+L+M+D+D+D+N+y+y+y+O+P+C+D+D+D+D+D+D+D+Q+  ",
"  R+R+S+T+U+V+V+V+W+R+R+R+R+R+R+X+Y+Z+V+V+V+l+R+R+R+`+ @Z+V+V+V+.@R+R+R++@@@Z+V+V+V+V+V+V+V+#@  ",
"  m.m.$@%@&@*@*@*@=@m.m.m.m.m.-@;@>@,@*@*@'@)@m.m.m.!@>@,@*@*@*@~@m.m.m.)@m+{@,@*@*@*@*@*@*@]@  ",
"  ^@/@(@_@:@<@<@[@}@^@^@^@^@^@|@1@2@:@<@<@3@^@^@^@^@4@_@:@<@<@<@5@6@^@^@^@,+7@8@9@0@a@:@<@<@b@  ",
"  c@d@e@f@g@h@h@i@j@c@c@c@c@c@k@l@m@h@h@h@n@c@c@c@c@o@p@q@h@h@h@g@r@s@t@c@c@u@v@w@x@y@g@h@h@z@  ",
"  A@B@C@D@E@E@E@F@A@A@A@A@A@G@H@I@J@E@E@K@L@A@A@A@A@y+M@N@E@E@E@E@J@O@P@Q@R@S@T@U@I@N@J@E@V@%+  ",
"  W@X@Y@Z@`@`@ #.#W@W@W@W@W@+#@###$#`@`@%#&#W@W@W@W@*#=###$#`@`@`@`@$#Z@-###;###-#Z@$#`@`@>#,#  ",
"  '#)#!#  ~#~#{#W@]#]#]#]#]#^#/#(#~#~#~#_#]#]#]#]#]#]#:#<#(#  ~#~#~#~#~#~#      ~#~#~#~#[#J ]#  ",
"  }#|#1#2#2#2#3#4#4#4#4#4#4#5#6#7#2#2#8#m.4#4#4#4#4#4#4#9#0#a#b#2#2#2#2#2#2#2#2#2#2#c#d#*.4#4#  ",
"  e#f#g#h#h#P@A@i#i#i#i#i#j#k#l#m#h#h#n#z+i#i#i#i#i#i#i#i#o#p#q#r#m#h#h#h#h#h#h#s#t#u#|+i#i#i#  ",
"  & v#v#v#v#w#x#y#y#y#y#y#W@v#v#v#v#v#z#y#y#y#y#y#y#y#y#y#y#x#b.A#B#C#D#E#E#F#& $ :#G#y#y#y#y#  ",
"  H#H#H#H#H#H#H#H#H#H#H#H#H#H#H#H#H#H#H#H#H#H#H#H#H#H#H#H#H#H#H#H#I#J#P.P.P.K#L#H#H#H#H#H#H#H#  ",
"  M#M#M#M#M#M#M#M#M#M#M#M#M#M#M#M#M#M#M#M#M#M#M#M#M#M#M#M#M#M#M#M#M#M#M#M#M#M#M#M#M#M#M#M#M#M#  ",
"  m+m+m+m+m+m+m+m+m+m+m+m+m+m+m+m+m+m+m+m+m+m+m+m+m+m+m+m+m+m+m+m+m+m+m+m+m+m+m+m+m+m+m+m+m+m+  ",
"  N#N#N#N#N#N#N#N#N#N#N#N#N#N#N#N#N#N#N#N#N#N#N#N#N#N#N#N#N#N#N#N#N#N#N#N#N#N#N#N#N#N#N#N#N#N#  ",
"  O#O#O#O#O#O#O#O#O#O#O#O#O#O#O#O#O#O#O#O#O#O#O#O#O#O#O#O#O#O#O#O#O#O#O#O#O#O#O#O#O#O#O#O#O#O#  ",
"  P#P#P#P#P#P#P#P#P#P#P#P#P#P#P#P#P#P#P#P#P#P#P#P#P#P#P#P#P#P#P#P#P#P#P#P#P#P#P#P#P#P#P#P#P#P#  ",
"  Q#Q#Q#Q#Q#Q#Q#Q#Q#Q#Q#Q#Q#Q#Q#Q#Q#Q#Q#Q#Q#Q#Q#Q#Q#Q#Q#Q#Q#Q#Q#Q#Q#Q#Q#Q#Q#Q#Q#Q#Q#Q#Q#Q#Q#Q#  ",
"  R#R#R#R#R#R#R#R#R#R#R#R#R#R#R#R#R#R#R#R#R#R#R#R#R#R#R#R#R#R#R#R#R#R#R#R#R#R#R#R#R#R#R#R#R#R#  ",
"  S#S#S#S#S#S#S#S#S#S#S#S#S#S#S#S#S#S#S#S#S#S#S#S#S#S#S#S#S#S#S#S#S#S#S#S#S#S#S#S#S#S#S#S#S#S#  ",
"  T#T#T#T#T#T#T#T#T#T#T#T#T#T#T#T#T#T#T#T#T#T#T#T#T#T#T#T#T#T#T#T#T#T#T#T#T#T#T#T#T#T#T#T#T#T#  ",
"  U#U#U#U#U#U#U#U#U#U#U#U#U#U#U#U#U#U#U#U#U#U#U#U#U#U#U#U#U#U#U#U#U#U#U#U#U#U#U#U#U#U#U#U#U#U#  ",
"                                                                                                "};
